<?xml version="1.0" standalone="no"?>
<!DOCTYPE svg PUBLIC "-//W3C//DTD SVG 20010904//EN"
 "http://www.w3.org/TR/2001/REC-SVG-20010904/DTD/svg10.dtd">
<svg version="1.0" xmlns="http://www.w3.org/2000/svg"
 width="160.000000pt" height="160.000000pt" viewBox="0 0 160.000000 160.000000"
 preserveAspectRatio="xMidYMid meet">
<metadata>
Created by potrace 1.14, written by Peter Selinger 2001-2017
</metadata>
<g transform="translate(0.000000,160.000000) scale(0.100000,-0.100000)"
fill="#000000" stroke="none">
<path d="M751 1574 c-19 -25 -20 -39 -20 -336 -1 -171 -2 -312 -3 -314 -2 -1
-66 36 -143 82 -162 99 -184 111 -207 120 -10 3 -18 10 -18 15 0 5 -4 9 -10 9
-5 0 -50 25 -100 55 -112 68 -128 72 -163 45 -36 -28 -36 -71 -2 -98 14 -11
149 -94 300 -183 151 -90 275 -166 275 -169 0 -5 -254 -159 -379 -230 -174
-100 -221 -135 -221 -166 0 -29 41 -74 67 -74 10 1 149 79 308 174 160 96 291
173 293 171 1 -1 3 -142 3 -313 0 -297 1 -312 20 -336 26 -33 68 -34 96 -3 21
21 22 32 23 336 0 173 2 316 3 317 1 1 130 -75 287 -168 157 -94 296 -172 309
-174 30 -3 71 37 71 69 0 13 -8 31 -17 40 -10 8 -144 90 -298 182 -154 92
-282 169 -285 172 -3 3 2 9 10 14 8 5 137 82 285 170 149 88 278 168 288 176
9 9 17 27 17 40 0 28 -41 73 -67 73 -10 -1 -148 -79 -308 -174 -159 -96 -291
-173 -293 -172 -1 2 -2 142 -2 313 -1 298 -1 312 -21 337 -27 35 -71 35 -98 0z"/>
</g>
</svg>
